<?xml version="1.0" encoding="utf-8"?>
<!-- Generator: Adobe Illustrator 16.0.3, SVG Export Plug-In . SVG Version: 6.00 Build 0)  -->
<!DOCTYPE svg PUBLIC "-//W3C//DTD SVG 1.1//EN" "http://www.w3.org/Graphics/SVG/1.1/DTD/svg11.dtd">
<svg version="1.1" xmlns="http://www.w3.org/2000/svg" xmlns:xlink="http://www.w3.org/1999/xlink" x="0px" y="0px" width="1342px"
	 height="1154px" viewBox="0 0 1342 1154" enable-background="new 0 0 1342 1154" xml:space="preserve">
<g id="Capa_1" display="none">
	<rect display="inline" width="2436" height="1125"/>
	<rect display="inline" fill="#0013E9" width="2436" height="1125"/>
	<g display="inline">
		<g>
			<path fill="#FFFFFF" d="M633.638,191.932c-11.794,0.621-21.261,2.226-28.4,4.811c-7.139,2.59-13.71,6.882-19.709,12.881
				c-4.554,4.345-7.968,9.156-10.243,14.433c-2.279,5.276-3.831,11.95-4.655,20.02c-1.45,10.761-2.173,23.487-2.173,38.176v228.75
				c0,21.314,1.241,37.144,3.725,47.488c2.483,10.349,6.93,18.623,13.346,24.831c11.377,10.97,27.415,16.969,48.109,18.002v7.139
				H435.305v-7.139c11.998-0.621,21.673-2.328,29.021-5.121c7.342-2.794,13.914-7.086,19.709-12.881
				c6.411-6.62,10.81-15.054,13.191-25.296c2.376-10.242,3.569-25.917,3.569-47.022V233.522L340.95,608.461h-6.518L175.518,239.109
				l-0.61,357.198h-12.713l0.597-314.056c0-9.515-0.311-18.516-0.931-27.002c-1.038-15.311-3.414-26.484-7.139-33.521
				c-5.175-9.724-12.26-16.916-21.261-21.571c-9.001-4.656-20.951-7.396-35.849-8.225v-7.139h134.705l134.394,331.795
				l139.36-331.795h127.566V191.932z"/>
			<path fill="#FFFFFF" d="M656.874,477.48c0-33.521,12.415-63.419,37.245-89.699c30.209-31.862,66.314-47.798,108.322-47.798
				c42.003,0,78.007,15.936,108.012,47.798c24.83,26.489,37.246,56.489,37.246,90.01c0,33.109-11.794,62.595-35.383,88.458
				c-28.972,31.867-65.597,47.799-109.875,47.799c-44.282,0-81.009-15.932-110.185-47.799
				c-11.382-12.415-20.126-26.275-26.227-41.591C659.924,509.348,656.874,493.621,656.874,477.48z M713.363,473.917
				c0,35.965,8.07,66.445,24.209,91.45c18.206,27.905,40.451,41.853,66.731,41.853c11.174,0,22.037-3.099,32.59-9.297
				c10.553-6.197,19.656-14.878,27.313-26.043c8.07-11.57,14.588-26.091,19.554-43.555c4.966-17.463,7.449-34.359,7.449-50.688
				c0-16.945-2.638-34.05-7.915-51.304c-5.276-17.255-12.367-32.086-21.261-44.491c-16.969-23.352-37.764-35.029-62.386-35.029
				c-23.385,0-43.56,12.298-60.524,36.892C721.947,408.3,713.363,438.368,713.363,473.917z"/>
			<path fill="#FFFFFF" d="M948.578,347.442h120.427v6.828c-9.108,1.862-15.315,3.928-18.623,6.198
				c-6.625,4.137-9.932,10.752-9.932,19.845c0,5.578,1.028,12.09,3.089,19.53c2.057,7.439,5.869,18.293,11.431,32.551l50.04,127.411
				l50.592-132.683c7.449-19.631,11.173-34.204,11.173-43.71c0-10.329-3.21-17.876-9.622-22.633
				c-3.313-2.478-9.418-4.646-18.313-6.508v-6.828h85.665v6.828c-11.591,2.896-20.902,8.06-27.935,15.5
				c-8.899,9.301-19.142,28.836-30.728,58.593l-71.697,182.901h-16.761l-77.905-192.202c-12.003-29.554-20.592-47.43-25.761-53.632
				c-2.9-3.308-6.106-5.733-9.622-7.285c-3.521-1.547-8.691-2.837-15.519-3.875V347.442z"/>
			<path fill="#FFFFFF" d="M1250.351,351.156l89.389-11.173v178.764l0.311,23.506c0,14.021,0.824,24.277,2.483,30.771
				c1.653,6.498,4.859,11.911,9.621,16.236c5.791,5.567,16.45,9.797,31.97,12.682v6.519h-137.188v-6.519
				c12.415-1.644,21.31-3.957,26.692-6.944c5.378-2.987,9.724-8.084,13.036-15.291c2.274-4.733,3.879-11.887,4.811-21.46
				c0.931-9.573,1.396-23.419,1.396-41.538v-76.275c0-21.203-0.519-36.077-1.552-44.622c-1.038-8.545-3.313-15.49-6.828-20.844
				c-3.521-5.761-7.76-9.932-12.726-12.507c-4.966-2.57-12.104-4.166-21.416-4.787V351.156z M1315.064,228.557
				c-8.118,0-14.825-2.585-20.131-7.759c-5.306-5.17-7.959-11.688-7.959-19.554c0-7.652,2.702-14.122,8.113-19.398
				c5.408-5.277,12.066-7.915,19.977-7.915c7.904,0,14.563,2.638,19.976,7.915c5.407,5.276,8.113,11.746,8.113,19.398
				c0,7.866-2.652,14.384-7.958,19.554C1329.89,225.972,1323.178,228.557,1315.064,228.557z"/>
			<path fill="#FFFFFF" d="M1962.639,552.024l89.39-11.174v178.764l0.31,23.507c0,14.02,0.825,24.276,2.483,30.771
				c1.653,6.499,4.859,11.911,9.622,16.236c5.79,5.567,16.45,9.797,31.969,12.683v6.518h-137.188v-6.518
				c12.415-1.645,21.31-3.958,26.692-6.945c5.379-2.987,9.724-8.084,13.036-15.291c2.274-4.732,3.88-11.887,4.811-21.46
				c0.932-9.572,1.397-23.419,1.397-41.537v-76.276c0-21.202-0.52-36.076-1.552-44.621c-1.038-8.545-3.313-15.49-6.829-20.844
				c-3.521-5.762-7.759-9.933-12.726-12.508c-4.966-2.57-12.104-4.166-21.416-4.786V552.024z M2027.353,429.424
				c-8.118,0-14.824-2.585-20.131-7.76c-5.305-5.169-7.958-11.688-7.958-19.554c0-7.653,2.701-14.123,8.113-19.399
				c5.408-5.276,12.066-7.915,19.976-7.915c7.905,0,14.563,2.638,19.977,7.915c5.406,5.276,8.113,11.746,8.113,19.399
				c0,7.866-2.653,14.384-7.958,19.554C2042.178,426.839,2035.466,429.424,2027.353,429.424z"/>
			<path fill="#FFFFFF" d="M2336.646,814.915c-2.691-12.6-4.034-25.515-4.034-38.744c-25.869,25.829-56.489,38.744-91.873,38.744
				c-25.868,0-46.663-6.3-62.386-18.909c-15.315-12.4-22.968-29.971-22.968-52.706V635.419l-0.311-23.564
				c0-14.05-0.83-24.278-2.483-30.689c-1.659-6.406-4.763-11.881-9.312-16.43c-6.004-5.578-16.76-9.714-32.279-12.401v-6.828h91.252
				v157.362c0,22.144,0.771,38.54,2.322,49.195c1.547,10.659,4.384,19.398,8.516,26.227c4.54,7.037,11.038,12.57,19.506,16.605
				c8.463,4.035,17.959,6.053,28.487,6.053c11.562,0,22.396-2.27,32.512-6.818c10.117-4.545,18.061-10.742,23.841-18.599
				c5.985-8.061,9.962-17.357,11.921-27.9c1.96-10.538,2.944-27.9,2.944-52.081v-60.757l-0.311-22.938
				c0-14.055-0.776-24.282-2.328-30.689c-1.552-6.406-4.709-11.881-9.467-16.43c-5.795-5.578-16.557-9.714-32.279-12.401v-6.828
				h91.252v168.327c0,21.29,0.567,36.223,1.707,44.797c1.135,8.574,3.36,15.548,6.673,20.921c3.725,5.791,8.069,9.977,13.036,12.557
				c4.966,2.584,12.104,4.185,21.416,4.806v6.518L2336.646,814.915z"/>
		</g>
		<path fill="#FFFFFF" d="M174.908,595.036l1.271,104.952c0,0-81.364,34.893-119.503,14.552
			c-19.299-10.293-58.48-36.868-36.868-86.45c25.512-58.525,101.266-47.652,120.775-20.341
			c19.07,26.698,21.612,26.698,21.612,26.698v-38.14L174.908,595.036z"/>
		<path fill="#FFFFFF" d="M1935.688,392.799c-11.795,0.621-21.262,2.226-28.4,4.811c-7.139,2.59-13.71,6.882-19.709,12.881
			c-4.554,4.345-7.968,9.156-10.242,14.433c-2.279,5.276-3.831,11.949-4.656,20.019c-1.449,10.762-2.173,23.487-2.173,38.177v228.75
			c0,21.314,1.242,37.144,3.726,47.488c2.482,10.349,6.93,18.622,13.346,24.83c11.377,10.97,27.415,16.969,48.109,18.002v7.139
			h-198.333v-7.139c11.998-0.621,21.674-2.328,29.021-5.121c7.343-2.794,13.914-7.086,19.709-12.881
			c6.411-6.62,10.811-15.054,13.191-25.296c2.376-10.242,3.569-25.917,3.569-47.022V434.39L1643,809.328h-6.518l-158.914-369.351
			l-0.609,357.198h-12.713l0.597-314.055c0-9.515-0.311-18.516-0.931-27.003c-1.038-15.311-3.414-26.484-7.139-33.521
			c-5.175-9.724-12.261-16.916-21.262-21.571s-20.95-7.396-35.849-8.225v-7.139h134.705l134.394,331.795l139.36-331.795h127.566
			V392.799z"/>
		<path fill="#FFFFFF" d="M1476.959,795.903l1.271,104.953c0,0-81.364,34.892-119.504,14.551
			c-19.299-10.293-58.48-36.868-36.868-86.449c25.512-58.526,101.267-47.653,120.775-20.341
			c19.069,26.697,21.612,26.697,21.612,26.697v-38.14L1476.959,795.903z"/>
	</g>
</g>
<g id="Capa_3" display="none">
	<circle fill="#FFFFFF" stroke="#000000" stroke-width="15" stroke-miterlimit="10" cx="4272" cy="545.5" r="520.5"/>
	<g display="inline">
		<polygon fill="#FFFFFF" points="530.828,328.429 435.5,425.129 340.172,329.429 193,329.429 193,716.683 345.563,716.683 
			345.563,550.523 435.49,640.128 525.437,550.523 525.437,716.683 678,716.683 678,328.429 		"/>
		<g>
			<rect x="202.91" y="339.253" fill="#FF00AC" width="134.2" height="368.18"/>
			<rect x="533.89" y="339.253" fill="#0900AA" width="134.2" height="368.18"/>
			
				<rect x="319.325" y="346.966" transform="matrix(0.7071 -0.7071 0.7071 0.7071 -228.6918 414.8524)" fill="#AC00FF" width="134.2" height="273.032"/>
			
				<rect x="417.475" y="346.966" transform="matrix(-0.7071 -0.7071 0.7071 -0.7071 485.3476 1168.001)" fill="#4AC4FF" width="134.2" height="273.032"/>
		</g>
	</g>
	<g>
		<path fill="#333333" d="M4184.099,706.438c0,4.375-2.414,6.562-7.231,6.562c-3.472,0-8.727-0.263-15.767-0.787
			c-7.042-0.525-12.294-0.787-15.766-0.787s-8.778,0.262-15.911,0.787c-7.135,0.524-12.438,0.787-15.91,0.787
			c-4.821,0-7.231-2.887-7.231-8.661c0-22.217,0.768-55.547,2.313-99.991c1.543-44.44,2.314-77.771,2.314-99.992
			c0-3.321-0.771-4.986-2.314-4.986c-1.735,0-3.086,0.962-4.049,2.887c-9.836,19.071-33.079,69.985-69.718,152.743
			c-5.979,15.921-14.563,35.783-25.746,59.574c-1.35,2.271-8.293,3.412-20.828,3.412c-18.128,0-28.16-1.487-30.085-4.461
			c-6.558-14.173-15.91-34.027-28.061-59.575c-16.011-34.644-40.6-86.254-73.768-154.843c-0.578-1.222-1.835-2.45-3.761-3.674
			c-1.546,1.05-2.313,2.978-2.313,5.774c0,22.57,0.434,56.425,1.302,101.566c0.867,45.141,1.302,78.996,1.302,101.565
			c0,5.774-2.414,8.661-7.232,8.661c-3.282,0-8.293-0.263-15.043-0.787c-6.753-0.525-11.764-0.787-15.043-0.787
			c-3.471,0-8.633,0.262-15.477,0.787c-6.846,0.524-12.005,0.787-15.477,0.787c-4.82,0-7.231-1.662-7.231-4.986
			c0-19.421,1.013-48.509,3.037-87.264c2.025-38.751,3.038-67.841,3.038-87.263c0-20.117-1.013-50.346-3.038-90.675
			c-2.024-40.326-3.037-70.554-3.037-90.674c0-3.321,2.214-5.249,6.653-5.774c26.225-3.149,45.996-4.724,59.303-4.724
			c1.926,0,4.629,3.587,8.1,10.76c46.672,93.081,86.785,176.191,120.342,249.323c7.907,17.149,12.629,25.72,14.175,25.72
			c1.925,0,6.075-6.996,12.439-20.996c26.225-56.688,62.581-140.842,109.06-252.472c2.893-6.824,6.074-10.235,9.546-10.235
			c6.554,0,16.44,0.353,29.651,1.05c13.207,0.7,23.094,1.05,29.651,1.05c4.817,0,7.231,2.1,7.231,6.299
			c0,20.121-0.723,50.349-2.169,90.674c-1.446,40.329-2.169,70.558-2.169,90.675c0,19.249,0.818,48.118,2.459,86.607
			C4183.275,658.586,4184.099,687.371,4184.099,706.438z"/>
		<path display="inline" fill="#333333" d="M4627.568,528.764c0,51.964-18.324,96.67-54.964,134.109
			c-38.185,38.842-85.628,58.263-142.326,58.263c-56.893,0-104.335-19.33-142.327-58c-36.643-37.268-54.964-82.055-54.964-134.372
			c0-51.789,18.515-96.489,55.542-134.109c38.186-39.014,85.436-58.525,141.749-58.525c56.506,0,103.853,19.512,142.037,58.525
			C4609.15,432.096,4627.568,476.799,4627.568,528.764z M4557.852,527.976c0-34.29-11.764-64.124-35.293-89.494
			c-24.688-26.941-55.642-40.417-92.859-40.417c-36.839,0-67.502,13.647-91.992,40.941c-23.143,25.548-34.713,55.466-34.713,89.756
			c0,34.118,11.57,63.949,34.713,89.493c24.49,27.295,55.153,40.942,91.992,40.942c37.414,0,68.46-13.647,93.148-40.942
			C4546.18,592.713,4557.852,562.619,4557.852,527.976z"/>
		<path display="inline" fill="#333333" d="M4993.799,476.012c0,7.348-18.902,43.394-56.699,108.127
			c-23.914,40.416-47.831,80.833-71.741,121.249c-2.894,5.077-6.075,7.611-9.546,7.611h-58.146c-2.703,0-5.4-2.534-8.1-7.611
			c-0.578-1.05-23.531-40.241-68.85-117.575c-38.764-66.308-58.146-102.525-58.146-108.652c0-13.819,0.53-34.599,1.591-62.331
			c1.058-27.729,1.592-48.508,1.592-62.331c0-6.471,2.314-9.71,6.942-9.71c3.661,0,9.013,0.262,16.056,0.787
			c7.039,0.525,12.391,0.788,16.055,0.788c3.471,0,8.775-0.263,15.91-0.788c7.133-0.525,12.439-0.787,15.91-0.787
			c4.437,0,6.654,1.665,6.654,4.986c0,14.172-1.013,35.521-3.037,64.037c-2.025,28.519-3.038,49.955-3.038,64.299
			c0,11.9,29.893,64.915,89.678,159.042c15.811-24.495,32.979-52.576,51.493-84.245c26.803-45.837,40.209-72.785,40.209-80.833
			c0-13.647-0.482-34.027-1.446-61.149c-0.968-27.12-1.446-47.412-1.446-60.887c0-3.5,2.121-5.249,6.364-5.249
			c3.661,0,9.063,0.262,16.2,0.787c7.132,0.525,12.438,0.788,15.91,0.788c3.471,0,8.723-0.263,15.766-0.788
			c7.039-0.525,12.295-0.787,15.766-0.787c4.24,0,6.654,1.665,7.232,4.986c-0.193-1.222-0.289,2.1-0.289,9.973
			c0,12.95,0.189,32.324,0.578,58.131C4993.606,443.69,4993.799,463.065,4993.799,476.012z"/>
		<path display="inline" fill="#333333" d="M5121.373,707.488c0,3.675-2.797,5.512-8.389,5.512c-3.473,0-8.779-0.263-15.911-0.787
			c-7.136-0.525-12.438-0.787-15.911-0.787c-3.664,0-9.066,0.262-16.199,0.787c-7.136,0.524-12.439,0.787-15.91,0.787
			c-4.822,0-7.232-2.009-7.232-6.036c0-19.946,1.013-49.996,3.037-90.15c2.025-40.153,3.038-70.291,3.038-90.412
			c0-19.421-1.013-48.593-3.038-87.525c-2.024-38.929-3.037-68.104-3.037-87.525c0-4.371,2.215-6.561,6.653-6.561
			c3.661,0,9.258,0.262,16.778,0.787c7.521,0.525,13.207,0.788,17.068,0.788c3.471,0,8.678-0.263,15.621-0.788
			s12.15-0.787,15.621-0.787c5.014,0,7.521,1.75,7.521,5.249c0,19.596-0.771,48.99-2.314,88.182
			c-1.547,39.195-2.314,68.588-2.314,88.181c0,20.121,0.82,50.302,2.459,90.544C5120.55,657.189,5121.373,687.371,5121.373,707.488z
			"/>
		<path display="inline" fill="#333333" d="M5588.854,706.438c0,4.375-2.414,6.562-7.232,6.562c-3.472,0-8.727-0.263-15.766-0.787
			c-7.043-0.525-12.295-0.787-15.767-0.787s-8.778,0.262-15.91,0.787c-7.136,0.524-12.439,0.787-15.911,0.787
			c-4.82,0-7.231-2.887-7.231-8.661c0-22.217,0.769-55.547,2.313-99.991c1.543-44.44,2.314-77.771,2.314-99.992
			c0-3.321-0.771-4.986-2.314-4.986c-1.734,0-3.085,0.962-4.049,2.887c-9.836,19.071-33.078,69.985-69.717,152.743
			c-5.979,15.921-14.564,35.783-25.746,59.574c-1.351,2.271-8.293,3.412-20.828,3.412c-18.129,0-28.161-1.487-30.086-4.461
			c-6.557-14.173-15.91-34.027-28.061-59.575c-16.011-34.644-40.6-86.254-73.768-154.843c-0.578-1.222-1.835-2.45-3.76-3.674
			c-1.547,1.05-2.314,2.978-2.314,5.774c0,22.57,0.434,56.425,1.302,101.566c0.868,45.141,1.302,78.996,1.302,101.565
			c0,5.774-2.414,8.661-7.232,8.661c-3.281,0-8.293-0.263-15.043-0.787c-6.753-0.525-11.764-0.787-15.043-0.787
			c-3.471,0-8.633,0.262-15.477,0.787c-6.846,0.524-12.004,0.787-15.477,0.787c-4.82,0-7.231-1.662-7.231-4.986
			c0-19.421,1.013-48.509,3.038-87.264c2.024-38.751,3.037-67.841,3.037-87.263c0-20.117-1.013-50.346-3.037-90.675
			c-2.025-40.326-3.038-70.554-3.038-90.674c0-3.321,2.214-5.249,6.653-5.774c26.225-3.149,45.996-4.724,59.303-4.724
			c1.926,0,4.629,3.587,8.1,10.76c46.672,93.081,86.785,176.191,120.342,249.323c7.907,17.149,12.629,25.72,14.175,25.72
			c1.925,0,6.075-6.996,12.439-20.996c26.225-56.688,62.581-140.842,109.06-252.472c2.893-6.824,6.074-10.235,9.546-10.235
			c6.554,0,16.44,0.353,29.651,1.05c13.207,0.7,23.095,1.05,29.652,1.05c4.817,0,7.231,2.1,7.231,6.299
			c0,20.121-0.724,50.349-2.17,90.674c-1.446,40.329-2.169,70.558-2.169,90.675c0,19.249,0.819,48.118,2.459,86.607
			C5588.029,658.586,5588.854,687.371,5588.854,706.438z"/>
		<path display="inline" fill="#333333" d="M5729.733,707.488c0,3.675-2.796,5.512-8.39,5.512c-3.471,0-8.777-0.263-15.91-0.787
			c-7.136-0.525-12.439-0.787-15.91-0.787c-3.664,0-9.068,0.262-16.2,0.787c-7.136,0.524-12.438,0.787-15.911,0.787
			c-4.82,0-7.231-2.009-7.231-6.036c0-19.946,1.013-49.996,3.038-90.15c2.024-40.153,3.037-70.291,3.037-90.412
			c0-19.421-1.013-48.593-3.037-87.525c-2.025-38.929-3.038-68.104-3.038-87.525c0-4.371,2.214-6.561,6.653-6.561
			c3.661,0,9.258,0.262,16.779,0.787s13.207,0.788,17.066,0.788c3.472,0,8.68-0.263,15.621-0.788
			c6.943-0.525,12.15-0.787,15.622-0.787c5.015,0,7.521,1.75,7.521,5.249c0,19.596-0.771,48.99-2.313,88.182
			c-1.546,39.195-2.314,68.588-2.314,88.181c0,20.121,0.819,50.302,2.459,90.544C5728.91,657.189,5729.733,687.371,5729.733,707.488
			z"/>
		<path display="inline" fill="#333333" d="M6122,350.563c0,20.299-0.916,50.695-2.748,91.2
			c-1.836,40.507-2.748,70.904-2.748,91.199c0,6.652,0.096,16.578,0.289,29.788c0.189,13.213,0.289,23.055,0.289,29.525
			c0,36.57-3.761,61.937-11.282,76.109c-11.571,21.695-34.038,36.392-67.402,44.09c-20.442,4.725-49.278,7.087-86.495,7.087
			c-67.503,0-111.764-10.146-132.781-30.444c-16.199-15.746-24.299-47.24-24.299-94.479c0-5.774,0.096-15.525,0.289-29.263
			c0.189-13.735,0.289-24.539,0.289-32.413c0-20.642-0.968-58.697-2.893-114.164c0-14.344-0.868-35.78-2.604-64.299
			c-0.193-2.1-0.289-3.5-0.289-4.199c0-3.674,2.503-5.511,7.521-5.511c7.907,0,18.61,0.09,32.11,0.262
			c15.621,0.175,26.225,0.263,31.821,0.263c4.436,0,6.653,1.575,6.653,4.724c0,26.598-0.627,66.573-1.881,119.937
			c-1.256,53.367-1.88,93.343-1.88,119.938c0,30.094,7.422,50.48,22.275,61.15c12.728,9.447,36.159,14.172,70.295,14.172
			c31.05,0,53.128-3.847,66.245-11.548c16.586-9.62,24.879-27.645,24.879-54.063c0-27.645-0.482-69.155-1.446-124.531
			c-0.968-55.375-1.446-96.883-1.446-124.53c0-2.796,2.793-4.549,8.389-5.249c4.051-0.525,9.836-0.525,17.357,0
			c8.867,0.7,13.113,1.05,12.729,1.05c3.471,0,8.723-0.263,15.766-0.788c7.039-0.525,12.295-0.787,15.766-0.787
			C6119.586,344.79,6122,346.717,6122,350.563z"/>
	</g>
	<g display="inline">
		<path display="none" fill="#FFFFFF" d="M1171.124,980.029c0,7.304-2.155,10.956-6.461,10.956c-2.809,0-7.072-0.281-12.782-0.843
			c-5.715-0.562-10.07-0.843-13.062-0.843c-3.188,0-7.963,0.189-14.327,0.562c-6.37,0.378-11.145,0.563-14.327,0.563
			c-3.933,0-5.899-4.398-5.899-13.203c0-8.612,0.324-21.49,0.983-38.626c0.654-17.136,0.983-30.009,0.983-38.625
			c0-47.378-0.189-73.783-0.562-79.218c-1.502-19.286-5.435-32.585-11.798-39.889c-7.304-7.866-20.323-11.799-39.047-11.799
			c-11.798,0-25.099,5.618-39.89,16.854c-15.358,11.799-23.315,23.412-23.877,34.833c-0.751,14.607-1.124,41.295-1.124,80.061
			c0,9.178,0.373,22.943,1.124,41.294c0.746,18.355,1.124,32.12,1.124,41.294c0,5.057-1.685,7.585-5.056,7.585
			s-8.287-0.281-14.748-0.843s-11.377-0.843-14.748-0.843c-2.998,0-7.401,0.189-13.203,0.562c-5.808,0.378-10.21,0.563-13.203,0.563
			c-3.749,0-5.618-2.713-5.618-8.146c0-8.989,0.281-22.518,0.843-40.592c0.562-18.07,0.843-31.604,0.843-40.592v-67.7
			c0-21.16-2.528-36.238-7.584-45.227c-7.12-12.733-20.696-19.103-40.732-19.103c-11.798,0-25.844,4.965-42.137,14.889
			c-17.979,10.863-26.968,21.819-26.968,32.866v82.026c0,9.367,0.092,23.316,0.281,41.856c0.183,18.54,0.281,32.401,0.281,41.575
			c0,5.434-2.155,8.146-6.461,8.146h-52.25c-3.749,0-5.618-2.528-5.618-7.585c0-15.169,0.092-37.968,0.281-68.402
			c0.183-30.431,0.281-53.232,0.281-68.402c0-34.271-3.652-68.446-10.956-102.532c-0.562-2.433-0.843-4.398-0.843-5.899
			c0-2.432,0.843-3.837,2.528-4.214c6.925-0.746,17.038-2.15,30.338-4.214c6.18-1.87,15.45-3.933,27.81-6.18l2.248-0.281
			c2.247,0,4.354,6.602,6.321,19.805c1.966,13.202,3.695,19.804,5.197,19.804l14.045-12.359
			c11.047-9.552,22.095-17.136,33.147-22.754c15.915-8.238,31.835-12.36,47.755-12.36c43.071,0,70.509,17.605,82.307,52.812
			c11.609-14.98,26.028-27.341,43.261-37.081c18.351-10.485,36.519-15.73,54.497-15.73c34.644,0,58.613,10.112,71.913,30.339
			c9.551,14.984,14.327,38.674,14.327,71.07c0,6.18-0.189,15.731-0.562,28.653c-0.378,12.922-0.562,22.473-0.562,28.652
			c0,11.799,0.281,29.545,0.843,53.233C1170.843,950.49,1171.124,968.231,1171.124,980.029z"/>
		<path fill="#FFFFFF" d="M983.251,575.619c0,39.144-12.83,72.571-38.485,100.285c-26.222,28.653-58.71,42.98-97.477,42.98
			c-38.955,0-71.541-14.23-97.757-42.699c-25.661-27.529-38.485-60.861-38.485-100.005c0-39.138,12.824-72.475,38.485-100.004
			c26.406-28.091,58.991-42.137,97.757-42.137c38.577,0,70.974,14.046,97.196,42.137
			C970.329,503.521,983.251,536.669,983.251,575.619z M923.979,576.181c0-22.845-7.022-42.321-21.068-58.43
			c-14.607-17.039-33.147-25.563-55.621-25.563s-41.11,8.427-55.901,25.282c-14.046,16.293-21.068,35.865-21.068,58.71
			c0,22.474,7.114,41.952,21.349,58.43c14.98,17.417,33.521,26.125,55.621,26.125c22.284,0,40.824-8.708,55.621-26.125
			C916.956,618.133,923.979,598.654,923.979,576.181z"/>
		<path fill="#FFFFFF" d="M1265.287,526.459c0,26.406-0.843,41.764-2.528,46.07c-2.809,8.427-17.979,33.056-45.508,73.88
			c-28.28,41.764-45.135,63.767-50.564,66.015c-2.625,1.123-10.491,1.686-23.597,1.686c-12.549,0-20.788-0.563-24.72-1.686
			c-5.246-1.686-22.381-22.846-51.407-63.486c-28.28-39.513-44.103-63.578-47.474-72.194c-4.495-11.799-6.742-30.058-6.742-54.778
			c0-7.676,0.184-19.194,0.562-34.552c0.373-15.354,0.562-26.871,0.562-34.552c0-4.117,2.058-6.18,6.18-6.18
			c6.18,0,15.401,0.281,27.67,0.843c12.263,0.562,21.49,0.843,27.67,0.843c3.371,0,5.056,1.875,5.056,5.618
			c0,5.996-0.378,14.845-1.124,26.546c-0.751,11.707-1.124,20.555-1.124,26.546c0,17.232,0.935,32.963,2.81,47.193
			c0.935,7.12,10.437,24.536,28.513,52.25c18.07,27.719,29.258,41.575,33.569,41.575c4.116,0,14.327-13.576,30.62-40.732
			c16.104-26.59,24.72-43.353,25.844-50.283c1.496-9.362,2.247-25.467,2.247-48.317c0-6.18-0.61-15.45-1.826-27.811
			c-1.221-12.36-1.826-21.63-1.826-27.81c0-2.81,1.405-4.214,4.214-4.214c6.18,0,15.261-0.325,27.249-0.983
			c11.981-0.653,20.971-0.983,26.968-0.983C1262.381,446.961,1265.287,473.463,1265.287,526.459z"/>
		<path fill="#FFFFFF" d="M1386.922,376.452c0,23.035-12.83,34.552-38.484,34.552c-26.033,0-39.047-11.517-39.047-34.552
			c0-10.297,4.024-18.821,12.079-25.563c7.487-6.364,16.477-9.551,26.968-9.551c10.485,0,19.523,3.279,27.107,9.832
			C1383.13,357.728,1386.922,366.155,1386.922,376.452z M1384.956,452.58c0,14.423-0.892,36.194-2.669,65.312
			c-1.783,29.123-2.669,50.985-2.669,65.593c0,13.673,0.281,34.131,0.843,61.38c0.563,27.248,0.843,47.614,0.843,61.099
			c0,3.933-1.686,5.898-5.057,5.898h-54.777c-3.933,0-5.899-3.836-5.899-11.518c0-12.922,0.324-32.349,0.983-58.289
			c0.653-25.936,0.983-45.459,0.983-58.57c0-14.607-1.081-36.519-3.23-65.733c-2.156-29.215-3.23-51.126-3.23-65.733
			c0-3.182,1.966-4.775,5.898-4.775c3.371,0,8.568,0.47,15.591,1.405c7.022,0.939,12.312,1.404,15.872,1.404
			c3.555,0,8.849-0.465,15.871-1.404c7.022-0.935,12.312-1.405,15.872-1.405C1383.362,447.242,1384.956,449.024,1384.956,452.58z"/>
		<path fill="#FFFFFF" d="M1867.563,702.029c0,7.304-2.156,10.956-6.462,10.956c-2.809,0-7.071-0.281-12.781-0.843
			c-5.715-0.562-10.069-0.843-13.063-0.843c-3.188,0-7.963,0.189-14.326,0.562c-6.369,0.378-11.145,0.563-14.326,0.563
			c-3.934,0-5.899-4.398-5.899-13.203c0-8.612,0.324-21.49,0.983-38.626c0.653-17.136,0.982-30.009,0.982-38.625
			c0-47.378-0.188-73.784-0.562-79.217c-1.502-19.287-5.435-32.586-11.798-39.89c-7.304-7.866-20.323-11.798-39.047-11.798
			c-11.799,0-25.099,5.618-39.89,16.855c-15.358,11.798-23.315,23.412-23.878,34.833c-0.751,14.607-1.123,41.294-1.123,80.06
			c0,9.178,0.372,22.943,1.123,41.294c0.746,18.355,1.124,32.12,1.124,41.294c0,5.057-1.686,7.585-5.057,7.585
			s-8.287-0.281-14.748-0.843s-11.377-0.843-14.748-0.843c-2.998,0-7.4,0.189-13.202,0.562c-5.808,0.378-10.211,0.563-13.203,0.563
			c-3.749,0-5.618-2.713-5.618-8.146c0-8.989,0.28-22.518,0.843-40.592c0.562-18.07,0.843-31.604,0.843-40.592v-67.7
			c0-21.16-2.528-36.238-7.585-45.227c-7.12-12.733-20.695-19.102-40.732-19.102c-11.798,0-25.844,4.965-42.137,14.889
			c-17.979,10.864-26.968,21.819-26.968,32.866v82.026c0,9.367,0.092,23.316,0.281,41.856c0.184,18.54,0.281,32.401,0.281,41.575
			c0,5.434-2.156,8.146-6.462,8.146h-52.249c-3.749,0-5.618-2.528-5.618-7.585c0-15.169,0.092-37.968,0.28-68.402
			c0.184-30.431,0.281-53.232,0.281-68.402c0-34.271-3.651-68.446-10.955-102.533c-0.563-2.432-0.843-4.398-0.843-5.899
			c0-2.432,0.843-3.836,2.527-4.214c6.926-0.746,17.039-2.151,30.339-4.214c6.181-1.87,15.45-3.933,27.811-6.18l2.247-0.281
			c2.248,0,4.354,6.602,6.32,19.804c1.967,13.203,3.695,19.805,5.197,19.805l14.046-12.36c11.047-9.551,22.095-17.136,33.147-22.754
			c15.915-8.238,31.835-12.36,47.755-12.36c43.071,0,70.509,17.605,82.308,52.812c11.609-14.98,26.027-27.34,43.26-37.081
			c18.352-10.485,36.52-15.731,54.497-15.731c34.645,0,58.614,10.113,71.914,30.338c9.551,14.985,14.326,38.674,14.326,71.071
			c0,6.18-0.188,15.731-0.562,28.653c-0.378,12.922-0.562,22.473-0.562,28.652c0,11.799,0.28,29.545,0.843,53.233
			C1867.282,672.49,1867.563,690.231,1867.563,702.029z"/>
		<path fill="#FFFFFF" d="M1996.221,376.452c0,23.035-12.83,34.552-38.484,34.552c-26.033,0-39.047-11.517-39.047-34.552
			c0-10.297,4.024-18.821,12.079-25.563c7.487-6.364,16.477-9.551,26.968-9.551c10.485,0,19.523,3.279,27.107,9.832
			C1992.429,357.728,1996.221,366.155,1996.221,376.452z M1994.255,452.58c0,14.423-0.892,36.194-2.669,65.312
			c-1.783,29.123-2.669,50.985-2.669,65.593c0,13.673,0.281,34.131,0.843,61.38c0.563,27.248,0.843,47.614,0.843,61.099
			c0,3.933-1.686,5.898-5.057,5.898h-54.777c-3.933,0-5.899-3.836-5.899-11.518c0-12.922,0.324-32.349,0.983-58.289
			c0.653-25.936,0.983-45.459,0.983-58.57c0-14.607-1.081-36.519-3.23-65.733c-2.156-29.215-3.23-51.126-3.23-65.733
			c0-3.182,1.966-4.775,5.898-4.775c3.371,0,8.568,0.47,15.591,1.405c7.022,0.939,12.312,1.404,15.872,1.404
			c3.554,0,8.849-0.465,15.871-1.404c7.022-0.935,12.312-1.405,15.871-1.405C1992.661,447.242,1994.255,449.024,1994.255,452.58z"/>
		<path fill="#FFFFFF" d="M2310,457.636c0,13.673-0.562,34.32-1.686,61.941c-1.123,27.626-1.686,48.365-1.686,62.222
			c0,13.673,0.422,34.131,1.264,61.38c0.844,27.248,1.265,47.711,1.265,61.379c0,3.749-1.783,6.181-5.337,7.304
			c-1.502,0.378-20.507,0.563-57.025,0.563c-2.248,0-3.609-7.023-4.073-21.068c-0.47-14.046-1.545-21.069-3.23-21.069
			c-0.94,0-2.345,0.843-4.214,2.528c-31.279,27.157-62.18,40.732-92.701,40.732c-41.392,0-68.731-14.98-82.026-44.945
			c-8.243-18.541-12.36-51.873-12.36-100.005c0-43.445,3.463-80.245,10.395-110.399c1.686-7.304,4.775-10.956,9.27-10.956
			c5.43,0,13.575,0.096,24.439,0.281c10.858,0.189,19.005,0.281,24.439,0.281c3.744,0,5.618,2.063,5.618,6.18
			c0,7.304-1.222,19.479-3.651,36.519c-2.626,18.167-4.031,30.997-4.214,38.485c-0.563,11.236-0.843,23.597-0.843,37.081
			c0,32.774,2.339,54.777,7.022,66.014c8.049,20.227,25.936,30.339,53.654,30.339c11.798,0,25.747-5.803,41.856-17.416
			c17.038-12.171,25.844-23.878,26.405-35.114c0.935-14.046,1.404-63.486,1.404-148.322c0-9.174,3.836-13.765,11.518-13.765h46.351
			C2307.282,447.804,2310,451.083,2310,457.636z"/>
	</g>
</g>
<g id="Capa_6" display="none">
	<path display="inline" d="M803.543,192.621L683.323,313.312c-6.585,6.611-17.289,6.611-23.873,0L539.229,192.621
		c-3.162-3.174-7.457-4.958-11.937-4.958H345.234c-9.305,0-16.848,7.543-16.848,16.848v507.417c0,9.305,7.543,16.848,16.848,16.848
		h174.208c9.305,0,16.848-7.543,16.848-16.848V523.197c0-14.996,18.119-22.519,28.741-11.934l94.449,94.125
		c6.574,6.552,17.209,6.553,23.784,0.002l94.479-94.134c10.623-10.583,28.739-3.06,28.739,11.935v188.737
		c0,9.305,7.543,16.848,16.848,16.848h174.208c9.305,0,16.848-7.543,16.848-16.848V204.511c0-9.305-7.543-16.848-16.848-16.848
		H815.48C811,187.663,806.705,189.447,803.543,192.621z"/>
	<g display="inline">
		<path fill="#FF00AC" d="M513.038,722.663H353.734c-9.305,0-16.848-7.543-16.848-16.848V210.011
			c0-9.305,7.543-16.848,16.848-16.848h159.304c9.305,0,16.848,7.543,16.848,16.848v495.804
			C529.886,715.12,522.343,722.663,513.038,722.663z"/>
		<path fill="#0900AA" d="M989.038,722.663H829.734c-9.305,0-16.848-7.543-16.848-16.848V210.011
			c0-9.305,7.543-16.848,16.848-16.848h159.304c9.305,0,16.848,7.543,16.848,16.848v495.804
			C1005.886,715.12,998.343,722.663,989.038,722.663z"/>
		<path fill="#AC00FF" d="M795.958,483.091L683.313,595.736c-6.58,6.579-17.247,6.579-23.826,0L405.66,341.908
			c-6.58-6.58-6.58-17.247,0-23.827l112.645-112.645c6.58-6.58,17.247-6.58,23.826,0l253.828,253.828
			C802.538,465.844,802.538,476.511,795.958,483.091z"/>
		<path fill="#4AC4FF" d="M824.468,205.437l112.645,112.645c6.58,6.58,6.58,17.247,0,23.827L683.285,595.736
			c-6.58,6.579-17.247,6.579-23.827,0L546.813,483.091c-6.58-6.58-6.58-17.247,0-23.827l253.828-253.828
			C807.221,198.857,817.888,198.857,824.468,205.437z"/>
	</g>
	<g display="inline">
		<path fill="#333333" d="M454.09,868.803c0,1.24-0.685,1.86-2.051,1.86c-0.984,0-2.475-0.074-4.471-0.223
			c-1.997-0.149-3.486-0.224-4.471-0.224s-2.489,0.074-4.512,0.224c-2.023,0.148-3.527,0.223-4.512,0.223
			c-1.367,0-2.051-0.818-2.051-2.456c0-6.3,0.218-15.751,0.656-28.354c0.438-12.603,0.656-22.054,0.656-28.355
			c0-0.941-0.219-1.414-0.656-1.414c-0.492,0-0.875,0.273-1.148,0.819c-2.773,5.376-9.303,19.677-19.587,42.901
			c-0.12,0.271-0.232,0.545-0.337,0.821c-1.688,4.444-4.07,9.94-7.146,16.483c-0.383,0.645-2.352,0.968-5.906,0.968
			c-5.141,0-7.985-0.422-8.531-1.265c-1.859-4.02-4.512-9.649-7.957-16.894c-4.54-9.824-11.513-24.459-20.918-43.909
			c-0.164-0.346-0.521-0.694-1.066-1.042c-0.438,0.298-0.656,0.845-0.656,1.638c0,6.4,0.123,16.001,0.369,28.801
			c0.246,12.801,0.369,22.401,0.369,28.801c0,1.638-0.685,2.456-2.051,2.456c-0.931,0-2.352-0.074-4.266-0.223
			c-1.915-0.149-3.336-0.224-4.266-0.224c-0.984,0-2.448,0.074-4.389,0.224c-1.941,0.148-3.404,0.223-4.389,0.223
			c-1.367,0-2.051-0.471-2.051-1.414c0-5.507,0.287-13.755,0.861-24.745c0.574-10.988,0.861-19.237,0.861-24.744
			c0-5.705-0.287-14.277-0.861-25.713s-0.861-20.007-0.861-25.713c0-0.941,0.628-1.488,1.887-1.637
			c7.437-0.894,13.043-1.34,16.816-1.34c0.546,0,1.313,1.017,2.297,3.051c13.234,26.396,24.609,49.963,34.125,70.7
			c2.242,4.863,3.581,7.294,4.02,7.294c0.546,0,1.723-1.984,3.527-5.954c7.437-16.075,17.746-39.938,30.926-71.593
			c0.82-1.936,1.723-2.902,2.707-2.902c1.858,0,4.662,0.1,8.408,0.297c3.745,0.199,6.549,0.298,8.408,0.298
			c1.366,0,2.051,0.596,2.051,1.786c0,5.706-0.205,14.277-0.615,25.713s-0.615,20.008-0.615,25.713
			c0,5.458,0.232,13.645,0.697,24.559C453.857,855.233,454.09,863.396,454.09,868.803z"/>
		<path fill="#333333" d="M579.844,818.42c0,14.735-5.196,27.412-15.586,38.029c-10.828,11.014-24.281,16.521-40.359,16.521
			c-16.133,0-29.586-5.481-40.359-16.447c-10.391-10.568-15.586-23.269-15.586-38.104c0-14.686,5.25-27.361,15.75-38.029
			c10.828-11.063,24.227-16.596,40.195-16.596c16.023,0,29.449,5.532,40.277,16.596C574.622,791.008,579.844,803.685,579.844,818.42
			z M560.075,818.196c0-9.724-3.336-18.184-10.008-25.378c-7.001-7.64-15.778-11.46-26.332-11.46
			c-10.446,0-19.142,3.869-26.086,11.609c-6.563,7.244-9.844,15.729-9.844,25.452c0,9.675,3.281,18.134,9.844,25.377
			c6.944,7.74,15.64,11.61,26.086,11.61c10.609,0,19.413-3.87,26.414-11.61C556.765,836.554,560.075,828.02,560.075,818.196z"/>
		<path fill="#333333" d="M683.696,803.461c0,2.084-5.36,12.306-16.078,30.661c-6.781,11.461-13.563,22.922-20.344,34.383
			c-0.82,1.439-1.723,2.158-2.707,2.158h-16.488c-0.767,0-1.531-0.719-2.297-2.158c-0.164-0.298-6.673-11.411-19.523-33.341
			c-10.992-18.803-16.488-29.072-16.488-30.81c0-3.919,0.15-9.812,0.451-17.676c0.3-7.862,0.451-13.755,0.451-17.675
			c0-1.835,0.656-2.754,1.969-2.754c1.038,0,2.556,0.075,4.553,0.224c1.996,0.149,3.514,0.224,4.553,0.224
			c0.984,0,2.488-0.074,4.512-0.224c2.022-0.148,3.527-0.224,4.512-0.224c1.258,0,1.887,0.473,1.887,1.414
			c0,4.02-0.287,10.073-0.861,18.159c-0.574,8.087-0.861,14.166-0.861,18.233c0,2.205,3.621,9.391,10.862,21.557
			c6.556,11.014,22.539,10.984,29.011-0.078c0.053-0.089,0.105-0.179,0.158-0.269c7.601-12.998,11.402-20.64,11.402-22.922
			c0-3.87-0.137-9.649-0.41-17.34c-0.274-7.69-0.41-13.444-0.41-17.266c0-0.993,0.602-1.489,1.805-1.489
			c1.038,0,2.57,0.075,4.594,0.224c2.022,0.149,3.527,0.224,4.512,0.224s2.474-0.074,4.471-0.224
			c1.996-0.148,3.486-0.224,4.471-0.224c1.202,0,1.887,0.473,2.051,1.414c-0.055-0.346-0.082,0.596-0.082,2.828
			c0,3.673,0.054,9.166,0.164,16.484C683.641,794.296,683.696,799.789,683.696,803.461z"/>
		<path fill="#333333" d="M719.872,869.101c0,1.042-0.793,1.563-2.379,1.563c-0.984,0-2.489-0.074-4.512-0.223
			c-2.023-0.149-3.527-0.224-4.512-0.224c-1.039,0-2.571,0.074-4.594,0.224c-2.023,0.148-3.527,0.223-4.512,0.223
			c-1.367,0-2.051-0.569-2.051-1.712c0-5.655,0.287-14.177,0.861-25.563c0.574-11.386,0.861-19.933,0.861-25.638
			c0-5.508-0.287-13.779-0.861-24.819c-0.574-11.039-0.861-19.313-0.861-24.819c0-1.24,0.628-1.861,1.887-1.861
			c1.038,0,2.625,0.075,4.758,0.224c2.133,0.149,3.745,0.224,4.84,0.224c0.984,0,2.461-0.074,4.43-0.224
			c1.969-0.148,3.445-0.224,4.43-0.224c1.422,0,2.133,0.496,2.133,1.489c0,5.557-0.219,13.892-0.656,25.005
			c-0.438,11.114-0.656,19.45-0.656,25.006c0,5.705,0.232,14.264,0.697,25.675C719.638,854.837,719.872,863.396,719.872,869.101z"/>
		<path fill="#333333" d="M852.434,868.803c0,1.24-0.685,1.86-2.051,1.86c-0.984,0-2.475-0.074-4.471-0.223
			c-1.997-0.149-3.486-0.224-4.471-0.224s-2.489,0.074-4.512,0.224c-2.023,0.148-3.527,0.223-4.512,0.223
			c-1.367,0-2.051-0.818-2.051-2.456c0-6.3,0.218-15.751,0.656-28.354c0.438-12.603,0.656-22.054,0.656-28.355
			c0-0.941-0.219-1.414-0.656-1.414c-0.492,0-0.875,0.273-1.148,0.819c-2.773,5.376-9.303,19.677-19.587,42.901
			c-0.12,0.271-0.232,0.545-0.337,0.821c-1.688,4.444-4.07,9.94-7.146,16.483c-0.383,0.645-2.352,0.968-5.906,0.968
			c-5.141,0-7.985-0.422-8.531-1.265c-1.859-4.02-4.512-9.649-7.957-16.894c-4.54-9.824-11.513-24.459-20.918-43.909
			c-0.164-0.346-0.521-0.694-1.066-1.042c-0.438,0.298-0.656,0.845-0.656,1.638c0,6.4,0.123,16.001,0.369,28.801
			c0.246,12.801,0.369,22.401,0.369,28.801c0,1.638-0.685,2.456-2.051,2.456c-0.931,0-2.352-0.074-4.266-0.223
			c-1.915-0.149-3.336-0.224-4.266-0.224c-0.984,0-2.448,0.074-4.389,0.224c-1.941,0.148-3.404,0.223-4.389,0.223
			c-1.367,0-2.051-0.471-2.051-1.414c0-5.507,0.287-13.755,0.861-24.745c0.574-10.988,0.861-19.237,0.861-24.744
			c0-5.705-0.287-14.277-0.861-25.713s-0.861-20.007-0.861-25.713c0-0.941,0.628-1.488,1.887-1.637
			c7.437-0.894,13.043-1.34,16.816-1.34c0.546,0,1.313,1.017,2.297,3.051c13.234,26.396,24.609,49.963,34.125,70.7
			c2.242,4.863,3.581,7.294,4.02,7.294c0.546,0,1.723-1.984,3.527-5.954c7.437-16.075,17.746-39.938,30.926-71.593
			c0.82-1.936,1.723-2.902,2.707-2.902c1.858,0,4.662,0.1,8.408,0.297c3.745,0.199,6.549,0.298,8.408,0.298
			c1.366,0,2.051,0.596,2.051,1.786c0,5.706-0.205,14.277-0.615,25.713s-0.615,20.008-0.615,25.713
			c0,5.458,0.232,13.645,0.697,24.559C852.201,855.233,852.434,863.396,852.434,868.803z"/>
		<path fill="#333333" d="M892.383,869.101c0,1.042-0.793,1.563-2.379,1.563c-0.984,0-2.489-0.074-4.512-0.223
			c-2.023-0.149-3.527-0.224-4.512-0.224c-1.039,0-2.571,0.074-4.594,0.224c-2.023,0.148-3.527,0.223-4.512,0.223
			c-1.367,0-2.051-0.569-2.051-1.712c0-5.655,0.287-14.177,0.861-25.563c0.574-11.386,0.861-19.933,0.861-25.638
			c0-5.508-0.287-13.779-0.861-24.819c-0.574-11.039-0.861-19.313-0.861-24.819c0-1.24,0.628-1.861,1.887-1.861
			c1.038,0,2.625,0.075,4.758,0.224c2.133,0.149,3.745,0.224,4.84,0.224c0.984,0,2.461-0.074,4.43-0.224
			c1.969-0.148,3.445-0.224,4.43-0.224c1.422,0,2.133,0.496,2.133,1.489c0,5.557-0.219,13.892-0.656,25.005
			c-0.438,11.114-0.656,19.45-0.656,25.006c0,5.705,0.232,14.264,0.697,25.675C892.15,854.837,892.383,863.396,892.383,869.101z"/>
		<path fill="#333333" d="M1003.618,767.888c0,5.756-0.26,14.376-0.779,25.861c-0.521,11.486-0.779,20.106-0.779,25.861
			c0,1.886,0.027,4.701,0.082,8.447c0.054,3.746,0.082,6.537,0.082,8.372c0,10.37-1.066,17.563-3.199,21.582
			c-3.281,6.152-9.652,10.319-19.113,12.503c-5.797,1.34-13.974,2.009-24.527,2.009c-19.142,0-31.692-2.876-37.652-8.633
			c-4.594-4.465-6.891-13.396-6.891-26.791c0-1.638,0.027-4.402,0.082-8.298c0.054-3.896,0.082-6.959,0.082-9.191
			c0-5.854-0.274-16.645-0.82-32.373c0-4.067-0.246-10.146-0.738-18.233c-0.055-0.596-0.082-0.992-0.082-1.19
			c0-1.042,0.71-1.563,2.133-1.563c2.242,0,5.277,0.026,9.105,0.075c4.43,0.049,7.437,0.074,9.023,0.074
			c1.258,0,1.887,0.446,1.887,1.34c0,7.542-0.178,18.878-0.533,34.01c-0.356,15.134-0.533,26.47-0.533,34.011
			c0,8.533,2.104,14.314,6.316,17.34c3.609,2.68,10.254,4.02,19.934,4.02c8.805,0,15.065-1.091,18.785-3.275
			c4.703-2.728,7.055-7.839,7.055-15.33c0-7.839-0.137-19.61-0.41-35.313c-0.274-15.702-0.41-27.473-0.41-35.313
			c0-0.793,0.792-1.29,2.379-1.488c1.148-0.149,2.789-0.149,4.922,0c1.259,0.1,2.19,0.174,2.792,0.224
			c0.686,0.057,1.367,0.073,2.056,0.046c0.867-0.034,1.944-0.1,3.233-0.195c1.996-0.148,3.486-0.224,4.471-0.224
			C1002.933,766.25,1003.618,766.797,1003.618,767.888z"/>
	</g>
</g>
<g id="Capa_4" display="none">
	<path display="inline" fill="#FFFFFF" d="M803.543,191.621L683.323,312.312c-6.585,6.611-17.289,6.611-23.873,0L539.229,191.621
		c-3.162-3.174-7.457-4.958-11.937-4.958H345.234c-9.305,0-16.848,7.543-16.848,16.848v507.417c0,9.305,7.543,16.848,16.848,16.848
		h174.208c9.305,0,16.848-7.543,16.848-16.848V522.197c0-14.996,18.119-22.519,28.741-11.934l94.449,94.125
		c6.574,6.552,17.209,6.553,23.784,0.002l94.479-94.134c10.623-10.583,28.739-3.06,28.739,11.935v188.737
		c0,9.305,7.543,16.848,16.848,16.848h174.208c9.305,0,16.848-7.543,16.848-16.848V203.511c0-9.305-7.543-16.848-16.848-16.848
		H815.48C811,186.663,806.705,188.447,803.543,191.621z"/>
	<g display="inline">
		<path fill="#FF00AC" d="M513.038,721.663H353.734c-9.305,0-16.848-7.543-16.848-16.848V209.011
			c0-9.305,7.543-16.848,16.848-16.848h159.304c9.305,0,16.848,7.543,16.848,16.848v495.804
			C529.886,714.12,522.343,721.663,513.038,721.663z"/>
		<path fill="#0900AA" d="M989.038,721.663H829.734c-9.305,0-16.848-7.543-16.848-16.848V209.011
			c0-9.305,7.543-16.848,16.848-16.848h159.304c9.305,0,16.848,7.543,16.848,16.848v495.804
			C1005.886,714.12,998.343,721.663,989.038,721.663z"/>
		<path fill="#AC00FF" d="M795.958,482.091L683.313,594.736c-6.58,6.579-17.247,6.579-23.826,0L405.66,340.908
			c-6.58-6.58-6.58-17.247,0-23.827l112.645-112.645c6.58-6.58,17.247-6.58,23.826,0l253.828,253.828
			C802.538,464.844,802.538,475.511,795.958,482.091z"/>
		<path fill="#4AC4FF" d="M824.468,204.437l112.645,112.645c6.58,6.58,6.58,17.247,0,23.827L683.285,594.736
			c-6.58,6.579-17.247,6.579-23.827,0L546.813,482.091c-6.58-6.58-6.58-17.247,0-23.827l253.828-253.828
			C807.221,197.857,817.888,197.857,824.468,204.437z"/>
	</g>
	<g display="inline">
		<path fill="#FFFFFF" d="M454.09,867.803c0,1.24-0.685,1.86-2.051,1.86c-0.984,0-2.475-0.074-4.471-0.223
			c-1.997-0.149-3.486-0.224-4.471-0.224s-2.489,0.074-4.512,0.224c-2.023,0.148-3.527,0.223-4.512,0.223
			c-1.367,0-2.051-0.818-2.051-2.456c0-6.3,0.218-15.751,0.656-28.354c0.438-12.603,0.656-22.054,0.656-28.355
			c0-0.941-0.219-1.414-0.656-1.414c-0.492,0-0.875,0.273-1.148,0.819c-2.773,5.376-9.303,19.677-19.587,42.901
			c-0.12,0.271-0.232,0.545-0.337,0.821c-1.688,4.444-4.07,9.94-7.146,16.483c-0.383,0.645-2.352,0.968-5.906,0.968
			c-5.141,0-7.985-0.422-8.531-1.265c-1.859-4.02-4.512-9.649-7.957-16.894c-4.54-9.824-11.513-24.459-20.918-43.909
			c-0.164-0.346-0.521-0.694-1.066-1.042c-0.438,0.298-0.656,0.845-0.656,1.638c0,6.4,0.123,16.001,0.369,28.801
			c0.246,12.801,0.369,22.401,0.369,28.801c0,1.638-0.685,2.456-2.051,2.456c-0.931,0-2.352-0.074-4.266-0.223
			c-1.915-0.149-3.336-0.224-4.266-0.224c-0.984,0-2.448,0.074-4.389,0.224c-1.941,0.148-3.404,0.223-4.389,0.223
			c-1.367,0-2.051-0.471-2.051-1.414c0-5.507,0.287-13.755,0.861-24.745c0.574-10.988,0.861-19.237,0.861-24.744
			c0-5.705-0.287-14.277-0.861-25.713s-0.861-20.007-0.861-25.713c0-0.941,0.628-1.488,1.887-1.637
			c7.437-0.894,13.043-1.34,16.816-1.34c0.546,0,1.313,1.017,2.297,3.051c13.234,26.396,24.609,49.963,34.125,70.7
			c2.242,4.863,3.581,7.294,4.02,7.294c0.546,0,1.723-1.984,3.527-5.954c7.437-16.075,17.746-39.938,30.926-71.593
			c0.82-1.936,1.723-2.902,2.707-2.902c1.858,0,4.662,0.1,8.408,0.297c3.745,0.199,6.549,0.298,8.408,0.298
			c1.366,0,2.051,0.596,2.051,1.786c0,5.706-0.205,14.277-0.615,25.713s-0.615,20.008-0.615,25.713
			c0,5.458,0.232,13.645,0.697,24.559C453.857,854.233,454.09,862.396,454.09,867.803z"/>
		<path fill="#FFFFFF" d="M579.844,817.42c0,14.735-5.196,27.412-15.586,38.029c-10.828,11.014-24.281,16.521-40.359,16.521
			c-16.133,0-29.586-5.481-40.359-16.447c-10.391-10.568-15.586-23.269-15.586-38.104c0-14.686,5.25-27.361,15.75-38.029
			c10.828-11.063,24.227-16.596,40.195-16.596c16.023,0,29.449,5.532,40.277,16.596C574.622,790.008,579.844,802.685,579.844,817.42
			z M560.075,817.196c0-9.724-3.336-18.184-10.008-25.378c-7.001-7.64-15.778-11.46-26.332-11.46
			c-10.446,0-19.142,3.869-26.086,11.609c-6.563,7.244-9.844,15.729-9.844,25.452c0,9.675,3.281,18.134,9.844,25.377
			c6.944,7.74,15.64,11.61,26.086,11.61c10.609,0,19.413-3.87,26.414-11.61C556.765,835.554,560.075,827.02,560.075,817.196z"/>
		<path fill="#FFFFFF" d="M683.696,802.461c0,2.084-5.36,12.306-16.078,30.661c-6.781,11.461-13.563,22.922-20.344,34.383
			c-0.82,1.439-1.723,2.158-2.707,2.158h-16.488c-0.767,0-1.531-0.719-2.297-2.158c-0.164-0.298-6.673-11.411-19.523-33.341
			c-10.992-18.803-16.488-29.072-16.488-30.81c0-3.919,0.15-9.812,0.451-17.676c0.3-7.862,0.451-13.755,0.451-17.675
			c0-1.835,0.656-2.754,1.969-2.754c1.038,0,2.556,0.075,4.553,0.224c1.996,0.149,3.514,0.224,4.553,0.224
			c0.984,0,2.488-0.074,4.512-0.224c2.022-0.148,3.527-0.224,4.512-0.224c1.258,0,1.887,0.473,1.887,1.414
			c0,4.02-0.287,10.073-0.861,18.159c-0.574,8.087-0.861,14.166-0.861,18.233c0,2.205,3.621,9.391,10.862,21.557
			c6.556,11.014,22.539,10.984,29.011-0.078c0.053-0.089,0.105-0.179,0.158-0.269c7.601-12.998,11.402-20.64,11.402-22.922
			c0-3.87-0.137-9.649-0.41-17.34c-0.274-7.69-0.41-13.444-0.41-17.266c0-0.993,0.602-1.489,1.805-1.489
			c1.038,0,2.57,0.075,4.594,0.224c2.022,0.149,3.527,0.224,4.512,0.224s2.474-0.074,4.471-0.224
			c1.996-0.148,3.486-0.224,4.471-0.224c1.202,0,1.887,0.473,2.051,1.414c-0.055-0.346-0.082,0.596-0.082,2.828
			c0,3.673,0.054,9.166,0.164,16.484C683.641,793.296,683.696,798.789,683.696,802.461z"/>
		<path fill="#FFFFFF" d="M719.872,868.101c0,1.042-0.793,1.563-2.379,1.563c-0.984,0-2.489-0.074-4.512-0.223
			c-2.023-0.149-3.527-0.224-4.512-0.224c-1.039,0-2.571,0.074-4.594,0.224c-2.023,0.148-3.527,0.223-4.512,0.223
			c-1.367,0-2.051-0.569-2.051-1.712c0-5.655,0.287-14.177,0.861-25.563c0.574-11.386,0.861-19.933,0.861-25.638
			c0-5.508-0.287-13.779-0.861-24.819c-0.574-11.039-0.861-19.313-0.861-24.819c0-1.24,0.628-1.861,1.887-1.861
			c1.038,0,2.625,0.075,4.758,0.224c2.133,0.149,3.745,0.224,4.84,0.224c0.984,0,2.461-0.074,4.43-0.224
			c1.969-0.148,3.445-0.224,4.43-0.224c1.422,0,2.133,0.496,2.133,1.489c0,5.557-0.219,13.892-0.656,25.005
			c-0.438,11.114-0.656,19.45-0.656,25.006c0,5.705,0.232,14.264,0.697,25.675C719.638,853.837,719.872,862.396,719.872,868.101z"/>
		<path fill="#FFFFFF" d="M852.434,867.803c0,1.24-0.685,1.86-2.051,1.86c-0.984,0-2.475-0.074-4.471-0.223
			c-1.997-0.149-3.486-0.224-4.471-0.224s-2.489,0.074-4.512,0.224c-2.023,0.148-3.527,0.223-4.512,0.223
			c-1.367,0-2.051-0.818-2.051-2.456c0-6.3,0.218-15.751,0.656-28.354c0.438-12.603,0.656-22.054,0.656-28.355
			c0-0.941-0.219-1.414-0.656-1.414c-0.492,0-0.875,0.273-1.148,0.819c-2.773,5.376-9.303,19.677-19.587,42.901
			c-0.12,0.271-0.232,0.545-0.337,0.821c-1.688,4.444-4.07,9.94-7.146,16.483c-0.383,0.645-2.352,0.968-5.906,0.968
			c-5.141,0-7.985-0.422-8.531-1.265c-1.859-4.02-4.512-9.649-7.957-16.894c-4.54-9.824-11.513-24.459-20.918-43.909
			c-0.164-0.346-0.521-0.694-1.066-1.042c-0.438,0.298-0.656,0.845-0.656,1.638c0,6.4,0.123,16.001,0.369,28.801
			c0.246,12.801,0.369,22.401,0.369,28.801c0,1.638-0.685,2.456-2.051,2.456c-0.931,0-2.352-0.074-4.266-0.223
			c-1.915-0.149-3.336-0.224-4.266-0.224c-0.984,0-2.448,0.074-4.389,0.224c-1.941,0.148-3.404,0.223-4.389,0.223
			c-1.367,0-2.051-0.471-2.051-1.414c0-5.507,0.287-13.755,0.861-24.745c0.574-10.988,0.861-19.237,0.861-24.744
			c0-5.705-0.287-14.277-0.861-25.713s-0.861-20.007-0.861-25.713c0-0.941,0.628-1.488,1.887-1.637
			c7.437-0.894,13.043-1.34,16.816-1.34c0.546,0,1.313,1.017,2.297,3.051c13.234,26.396,24.609,49.963,34.125,70.7
			c2.242,4.863,3.581,7.294,4.02,7.294c0.546,0,1.723-1.984,3.527-5.954c7.437-16.075,17.746-39.938,30.926-71.593
			c0.82-1.936,1.723-2.902,2.707-2.902c1.858,0,4.662,0.1,8.408,0.297c3.745,0.199,6.549,0.298,8.408,0.298
			c1.366,0,2.051,0.596,2.051,1.786c0,5.706-0.205,14.277-0.615,25.713s-0.615,20.008-0.615,25.713
			c0,5.458,0.232,13.645,0.697,24.559C852.201,854.233,852.434,862.396,852.434,867.803z"/>
		<path fill="#FFFFFF" d="M892.383,868.101c0,1.042-0.793,1.563-2.379,1.563c-0.984,0-2.489-0.074-4.512-0.223
			c-2.023-0.149-3.527-0.224-4.512-0.224c-1.039,0-2.571,0.074-4.594,0.224c-2.023,0.148-3.527,0.223-4.512,0.223
			c-1.367,0-2.051-0.569-2.051-1.712c0-5.655,0.287-14.177,0.861-25.563c0.574-11.386,0.861-19.933,0.861-25.638
			c0-5.508-0.287-13.779-0.861-24.819c-0.574-11.039-0.861-19.313-0.861-24.819c0-1.24,0.628-1.861,1.887-1.861
			c1.038,0,2.625,0.075,4.758,0.224c2.133,0.149,3.745,0.224,4.84,0.224c0.984,0,2.461-0.074,4.43-0.224
			c1.969-0.148,3.445-0.224,4.43-0.224c1.422,0,2.133,0.496,2.133,1.489c0,5.557-0.219,13.892-0.656,25.005
			c-0.438,11.114-0.656,19.45-0.656,25.006c0,5.705,0.232,14.264,0.697,25.675C892.15,853.837,892.383,862.396,892.383,868.101z"/>
		<path fill="#FFFFFF" d="M1003.618,766.888c0,5.756-0.26,14.376-0.779,25.861c-0.521,11.486-0.779,20.106-0.779,25.861
			c0,1.886,0.027,4.701,0.082,8.447c0.054,3.746,0.082,6.537,0.082,8.372c0,10.37-1.066,17.563-3.199,21.582
			c-3.281,6.152-9.652,10.319-19.113,12.503c-5.797,1.34-13.974,2.009-24.527,2.009c-19.142,0-31.692-2.876-37.652-8.633
			c-4.594-4.465-6.891-13.396-6.891-26.791c0-1.638,0.027-4.402,0.082-8.298c0.054-3.896,0.082-6.959,0.082-9.191
			c0-5.854-0.274-16.645-0.82-32.373c0-4.067-0.246-10.146-0.738-18.233c-0.055-0.596-0.082-0.992-0.082-1.19
			c0-1.042,0.71-1.563,2.133-1.563c2.242,0,5.277,0.026,9.105,0.075c4.43,0.049,7.437,0.074,9.023,0.074
			c1.258,0,1.887,0.446,1.887,1.34c0,7.542-0.178,18.878-0.533,34.01c-0.356,15.134-0.533,26.47-0.533,34.011
			c0,8.533,2.104,14.314,6.316,17.34c3.609,2.68,10.254,4.02,19.934,4.02c8.805,0,15.065-1.091,18.785-3.275
			c4.703-2.728,7.055-7.839,7.055-15.33c0-7.839-0.137-19.61-0.41-35.313c-0.274-15.702-0.41-27.473-0.41-35.313
			c0-0.793,0.792-1.29,2.379-1.488c1.148-0.149,2.789-0.149,4.922,0c1.259,0.1,2.19,0.174,2.792,0.224
			c0.686,0.057,1.367,0.073,2.056,0.046c0.867-0.034,1.944-0.1,3.233-0.195c1.996-0.148,3.486-0.224,4.471-0.224
			C1002.933,765.25,1003.618,765.797,1003.618,766.888z"/>
	</g>
</g>
<g id="Capa_2" display="none">
	
		<circle display="inline" fill="#FFFFFF" stroke="#000000" stroke-width="15" stroke-miterlimit="10" cx="671" cy="561.5" r="520.5"/>
	<polygon display="inline" points="808.096,199 671,336.632 533.904,199 328,199 328,740.112 535.904,740.112 535.904,493.958 
		670.985,628.575 806.096,493.958 806.096,740.112 1014,740.112 1014,199 	"/>
	<g display="inline">
		<rect x="336.5" y="204.5" fill="#FF00AC" width="193" height="529.5"/>
		<rect x="812.5" y="204.5" fill="#0900AA" width="193" height="529.5"/>
		
			<rect x="503.923" y="215.592" transform="matrix(0.7071 -0.7071 0.7071 0.7071 -115.4139 545.2112)" fill="#AC00FF" width="193" height="392.662"/>
		
			<rect x="645.077" y="215.592" transform="matrix(-0.7071 -0.7071 0.7071 -0.7071 974.6766 1227.5706)" fill="#4AC4FF" width="193" height="392.662"/>
	</g>
	<g display="inline">
		<path fill="#333333" d="M453.704,880.14c0,1.24-0.685,1.86-2.051,1.86c-0.984,0-2.475-0.074-4.471-0.224
			c-1.997-0.148-3.486-0.223-4.471-0.223s-2.489,0.074-4.512,0.223c-2.023,0.149-3.527,0.224-4.512,0.224
			c-1.367,0-2.051-0.818-2.051-2.456c0-6.3,0.218-15.751,0.656-28.354c0.438-12.602,0.656-22.054,0.656-28.354
			c0-0.941-0.219-1.414-0.656-1.414c-0.492,0-0.875,0.273-1.148,0.819c-2.789,5.407-9.38,19.846-19.77,43.313
			c-1.695,4.515-4.13,10.147-7.301,16.894c-0.383,0.645-2.352,0.968-5.906,0.968c-5.141,0-7.985-0.422-8.531-1.266
			c-1.859-4.019-4.512-9.648-7.957-16.894c-4.54-9.823-11.513-24.458-20.918-43.908c-0.164-0.347-0.521-0.694-1.066-1.042
			c-0.438,0.298-0.656,0.845-0.656,1.638c0,6.4,0.123,16,0.369,28.801s0.369,22.4,0.369,28.801c0,1.638-0.685,2.456-2.051,2.456
			c-0.931,0-2.352-0.074-4.266-0.224c-1.915-0.148-3.336-0.223-4.266-0.223c-0.984,0-2.448,0.074-4.389,0.223
			c-1.941,0.149-3.404,0.224-4.389,0.224c-1.367,0-2.051-0.472-2.051-1.414c0-5.507,0.287-13.756,0.861-24.745
			c0.574-10.988,0.861-19.237,0.861-24.745c0-5.704-0.287-14.276-0.861-25.712s-0.861-20.007-0.861-25.713
			c0-0.941,0.628-1.488,1.887-1.638c7.437-0.893,13.043-1.339,16.816-1.339c0.546,0,1.313,1.017,2.297,3.051
			c13.234,26.395,24.609,49.963,34.125,70.7c2.242,4.863,3.581,7.293,4.02,7.293c0.546,0,1.723-1.983,3.527-5.953
			c7.437-16.075,17.746-39.938,30.926-71.594c0.82-1.935,1.723-2.902,2.707-2.902c1.858,0,4.662,0.101,8.408,0.298
			c3.745,0.198,6.549,0.298,8.408,0.298c1.366,0,2.051,0.596,2.051,1.786c0,5.706-0.205,14.277-0.615,25.713
			s-0.615,20.008-0.615,25.712c0,5.459,0.232,13.645,0.697,24.56C453.471,866.57,453.704,874.732,453.704,880.14z"/>
		<path fill="#333333" d="M579.458,829.757c0,14.735-5.196,27.412-15.586,38.028c-10.828,11.015-24.281,16.521-40.359,16.521
			c-16.133,0-29.586-5.481-40.359-16.446c-10.391-10.568-15.586-23.269-15.586-38.104c0-14.687,5.25-27.361,15.75-38.029
			c10.828-11.063,24.227-16.597,40.195-16.597c16.023,0,29.449,5.533,40.277,16.597
			C574.235,802.345,579.458,815.021,579.458,829.757z M559.688,829.533c0-9.724-3.336-18.184-10.008-25.378
			c-7.001-7.64-15.778-11.461-26.332-11.461c-10.446,0-19.142,3.87-26.086,11.61c-6.563,7.244-9.844,15.729-9.844,25.452
			c0,9.674,3.281,18.134,9.844,25.377c6.944,7.74,15.64,11.61,26.086,11.61c10.609,0,19.413-3.87,26.414-11.61
			C556.379,847.891,559.688,839.356,559.688,829.533z"/>
		<path fill="#333333" d="M683.31,814.798c0,2.084-5.36,12.305-16.078,30.661c-6.781,11.461-13.563,22.922-20.344,34.383
			c-0.82,1.439-1.723,2.158-2.707,2.158h-16.488c-0.767,0-1.531-0.719-2.297-2.158c-0.164-0.298-6.673-11.411-19.523-33.341
			c-10.992-18.803-16.488-29.073-16.488-30.811c0-3.918,0.15-9.811,0.451-17.675c0.3-7.863,0.451-13.756,0.451-17.675
			c0-1.835,0.656-2.754,1.969-2.754c1.038,0,2.556,0.074,4.553,0.224c1.996,0.148,3.514,0.223,4.553,0.223
			c0.984,0,2.488-0.074,4.512-0.223c2.022-0.149,3.527-0.224,4.512-0.224c1.258,0,1.887,0.473,1.887,1.414
			c0,4.019-0.287,10.072-0.861,18.159s-0.861,14.165-0.861,18.232c0,3.375,8.477,18.408,25.43,45.1
			c4.483-6.946,9.352-14.909,14.602-23.889c7.601-12.998,11.402-20.64,11.402-22.922c0-3.87-0.137-9.649-0.41-17.34
			c-0.274-7.69-0.41-13.445-0.41-17.267c0-0.992,0.602-1.488,1.805-1.488c1.038,0,2.57,0.074,4.594,0.224
			c2.022,0.148,3.527,0.223,4.512,0.223s2.474-0.074,4.471-0.223c1.996-0.149,3.486-0.224,4.471-0.224
			c1.202,0,1.887,0.473,2.051,1.414c-0.055-0.347-0.082,0.596-0.082,2.828c0,3.673,0.054,9.166,0.164,16.484
			C683.255,805.633,683.31,811.126,683.31,814.798z"/>
		<path fill="#333333" d="M719.485,880.438c0,1.042-0.793,1.563-2.379,1.563c-0.984,0-2.489-0.074-4.512-0.224
			c-2.023-0.148-3.527-0.223-4.512-0.223c-1.039,0-2.571,0.074-4.594,0.223c-2.023,0.149-3.527,0.224-4.512,0.224
			c-1.367,0-2.051-0.569-2.051-1.712c0-5.656,0.287-14.177,0.861-25.563s0.861-19.933,0.861-25.638
			c0-5.508-0.287-13.779-0.861-24.819c-0.574-11.039-0.861-19.313-0.861-24.82c0-1.239,0.628-1.86,1.887-1.86
			c1.038,0,2.625,0.074,4.758,0.224c2.133,0.148,3.745,0.223,4.84,0.223c0.984,0,2.461-0.074,4.43-0.223
			c1.969-0.149,3.445-0.224,4.43-0.224c1.422,0,2.133,0.496,2.133,1.488c0,5.558-0.219,13.893-0.656,25.006
			c-0.438,11.114-0.656,19.449-0.656,25.006c0,5.705,0.232,14.264,0.697,25.675C719.252,866.174,719.485,874.732,719.485,880.438z"
			/>
		<path fill="#333333" d="M852.048,880.14c0,1.24-0.685,1.86-2.051,1.86c-0.984,0-2.475-0.074-4.471-0.224
			c-1.997-0.148-3.486-0.223-4.471-0.223s-2.489,0.074-4.512,0.223c-2.023,0.149-3.527,0.224-4.512,0.224
			c-1.367,0-2.051-0.818-2.051-2.456c0-6.3,0.218-15.751,0.656-28.354c0.438-12.602,0.656-22.054,0.656-28.354
			c0-0.941-0.219-1.414-0.656-1.414c-0.492,0-0.875,0.273-1.148,0.819c-2.789,5.407-9.38,19.846-19.77,43.313
			c-1.695,4.515-4.13,10.147-7.301,16.894c-0.383,0.645-2.352,0.968-5.906,0.968c-5.141,0-7.985-0.422-8.531-1.266
			c-1.859-4.019-4.512-9.648-7.957-16.894c-4.54-9.823-11.513-24.458-20.918-43.908c-0.164-0.347-0.521-0.694-1.066-1.042
			c-0.438,0.298-0.656,0.845-0.656,1.638c0,6.4,0.123,16,0.369,28.801s0.369,22.4,0.369,28.801c0,1.638-0.685,2.456-2.051,2.456
			c-0.931,0-2.352-0.074-4.266-0.224c-1.915-0.148-3.336-0.223-4.266-0.223c-0.984,0-2.448,0.074-4.389,0.223
			c-1.941,0.149-3.404,0.224-4.389,0.224c-1.367,0-2.051-0.472-2.051-1.414c0-5.507,0.287-13.756,0.861-24.745
			c0.574-10.988,0.861-19.237,0.861-24.745c0-5.704-0.287-14.276-0.861-25.712s-0.861-20.007-0.861-25.713
			c0-0.941,0.628-1.488,1.887-1.638c7.437-0.893,13.043-1.339,16.816-1.339c0.546,0,1.313,1.017,2.297,3.051
			c13.234,26.395,24.609,49.963,34.125,70.7c2.242,4.863,3.581,7.293,4.02,7.293c0.546,0,1.723-1.983,3.527-5.953
			c7.437-16.075,17.746-39.938,30.926-71.594c0.82-1.935,1.723-2.902,2.707-2.902c1.858,0,4.662,0.101,8.408,0.298
			c3.745,0.198,6.549,0.298,8.408,0.298c1.366,0,2.051,0.596,2.051,1.786c0,5.706-0.205,14.277-0.615,25.713
			s-0.615,20.008-0.615,25.712c0,5.459,0.232,13.645,0.697,24.56C851.814,866.57,852.048,874.732,852.048,880.14z"/>
		<path fill="#333333" d="M891.997,880.438c0,1.042-0.793,1.563-2.379,1.563c-0.984,0-2.489-0.074-4.512-0.224
			c-2.023-0.148-3.527-0.223-4.512-0.223c-1.039,0-2.571,0.074-4.594,0.223c-2.023,0.149-3.527,0.224-4.512,0.224
			c-1.367,0-2.051-0.569-2.051-1.712c0-5.656,0.287-14.177,0.861-25.563s0.861-19.933,0.861-25.638
			c0-5.508-0.287-13.779-0.861-24.819c-0.574-11.039-0.861-19.313-0.861-24.82c0-1.239,0.628-1.86,1.887-1.86
			c1.038,0,2.625,0.074,4.758,0.224c2.133,0.148,3.745,0.223,4.84,0.223c0.984,0,2.461-0.074,4.43-0.223
			c1.969-0.149,3.445-0.224,4.43-0.224c1.422,0,2.133,0.496,2.133,1.488c0,5.558-0.219,13.893-0.656,25.006
			c-0.438,11.114-0.656,19.449-0.656,25.006c0,5.705,0.232,14.264,0.697,25.675C891.764,866.174,891.997,874.732,891.997,880.438z"
			/>
		<path fill="#333333" d="M1003.231,779.225c0,5.756-0.26,14.375-0.779,25.861c-0.521,11.486-0.779,20.105-0.779,25.861
			c0,1.886,0.027,4.701,0.082,8.446c0.054,3.747,0.082,6.538,0.082,8.373c0,10.37-1.066,17.563-3.199,21.582
			c-3.281,6.152-9.652,10.319-19.113,12.503c-5.797,1.339-13.974,2.009-24.527,2.009c-19.142,0-31.692-2.877-37.652-8.633
			c-4.594-4.465-6.891-13.396-6.891-26.791c0-1.638,0.027-4.403,0.082-8.299c0.054-3.895,0.082-6.958,0.082-9.19
			c0-5.854-0.274-16.645-0.82-32.373c0-4.067-0.246-10.146-0.738-18.233c-0.055-0.596-0.082-0.992-0.082-1.19
			c0-1.042,0.71-1.563,2.133-1.563c2.242,0,5.277,0.026,9.105,0.074c4.43,0.05,7.437,0.075,9.023,0.075
			c1.258,0,1.887,0.446,1.887,1.339c0,7.543-0.178,18.879-0.533,34.011c-0.356,15.133-0.533,26.469-0.533,34.011
			c0,8.533,2.104,14.314,6.316,17.34c3.609,2.68,10.254,4.019,19.934,4.019c8.805,0,15.065-1.091,18.785-3.274
			c4.703-2.728,7.055-7.839,7.055-15.331c0-7.839-0.137-19.609-0.41-35.313c-0.274-15.703-0.41-27.473-0.41-35.313
			c0-0.793,0.792-1.29,2.379-1.488c1.148-0.149,2.789-0.149,4.922,0c2.515,0.198,3.719,0.297,3.609,0.297
			c0.984,0,2.474-0.074,4.471-0.223c1.996-0.149,3.486-0.224,4.471-0.224C1002.547,777.587,1003.231,778.134,1003.231,779.225z"/>
	</g>
</g>
<g id="Capa_5">
	<rect x="-25" y="-19" display="none" stroke="#000000" stroke-width="15" stroke-miterlimit="10" width="1390" height="1188"/>
	<circle display="none" stroke="#000000" stroke-width="15" stroke-miterlimit="10" cx="671" cy="562.5" r="520.5"/>
	<polygon display="none" fill="#FFFFFF" points="808.096,200 671,337.632 533.904,200 328,200 328,741.112 535.904,741.112 
		535.904,494.958 670.985,629.575 806.096,494.958 806.096,741.112 1014,741.112 1014,200 	"/>
	<g>
		<g>
			<g>
				<path fill="#FF00AC" d="M529.5,718c0,9.35-7.65,17-17,17h-159c-9.35,0-17-7.65-17-17V222.5c0-9.35,7.65-17,17-17h159
					c9.35,0,17,7.65,17,17V718z"/>
			</g>
			<g>
				<path fill="#5390D9" d="M1005.5,718c0,9.35-7.65,17-17,17h-159c-9.35,0-17-7.65-17-17V222.5c0-9.35,7.65-17,17-17h159
					c9.35,0,17,7.65,17,17V718z"/>
			</g>
			<g>
				<path fill="#AC00FF" d="M795.465,469.493c6.612,6.612,6.612,17.43,0,24.042l-112.43,112.43c-6.612,6.611-17.43,6.611-24.042,0
					L405.381,352.353c-6.612-6.612-6.612-17.43,0-24.042l112.43-112.43c6.612-6.612,17.43-6.612,24.042,0L795.465,469.493z"/>
			</g>
			<g>
				<path fill="#4AC4FF" d="M800.147,215.881c6.612-6.612,17.43-6.612,24.042,0l112.429,112.43c6.612,6.612,6.612,17.43,0,24.042
					L683.007,605.965c-6.612,6.611-17.43,6.611-24.042,0l-112.43-112.43c-6.612-6.612-6.612-17.43,0-24.042L800.147,215.881z"/>
			</g>
		</g>
	</g>
	<g>
		<path fill="#FFFFFF" d="M453.704,881.14c0,1.24-0.685,1.86-2.051,1.86c-0.984,0-2.475-0.074-4.471-0.224
			c-1.997-0.148-3.486-0.223-4.471-0.223s-2.489,0.074-4.512,0.223c-2.023,0.149-3.527,0.224-4.512,0.224
			c-1.367,0-2.051-0.818-2.051-2.456c0-6.3,0.218-15.751,0.656-28.354c0.438-12.602,0.656-22.054,0.656-28.354
			c0-0.941-0.219-1.414-0.656-1.414c-0.492,0-0.875,0.273-1.148,0.819c-2.789,5.407-9.38,19.846-19.77,43.313
			c-1.695,4.515-4.13,10.147-7.301,16.894c-0.383,0.645-2.352,0.968-5.906,0.968c-5.141,0-7.985-0.422-8.531-1.266
			c-1.859-4.019-4.512-9.648-7.957-16.894c-4.54-9.823-11.513-24.458-20.918-43.908c-0.164-0.347-0.521-0.694-1.066-1.042
			c-0.438,0.298-0.656,0.845-0.656,1.638c0,6.4,0.123,16,0.369,28.801s0.369,22.4,0.369,28.801c0,1.638-0.685,2.456-2.051,2.456
			c-0.931,0-2.352-0.074-4.266-0.224c-1.915-0.148-3.336-0.223-4.266-0.223c-0.984,0-2.448,0.074-4.389,0.223
			c-1.941,0.149-3.404,0.224-4.389,0.224c-1.367,0-2.051-0.472-2.051-1.414c0-5.507,0.287-13.756,0.861-24.745
			c0.574-10.988,0.861-19.237,0.861-24.745c0-5.704-0.287-14.276-0.861-25.712s-0.861-20.007-0.861-25.713
			c0-0.941,0.628-1.488,1.887-1.638c7.437-0.893,13.043-1.339,16.816-1.339c0.546,0,1.313,1.017,2.297,3.051
			c13.234,26.395,24.609,49.963,34.125,70.7c2.242,4.863,3.581,7.293,4.02,7.293c0.546,0,1.723-1.983,3.527-5.953
			c7.437-16.075,17.746-39.938,30.926-71.594c0.82-1.935,1.723-2.902,2.707-2.902c1.858,0,4.662,0.101,8.408,0.298
			c3.745,0.198,6.549,0.298,8.408,0.298c1.366,0,2.051,0.596,2.051,1.786c0,5.706-0.205,14.277-0.615,25.713
			s-0.615,20.008-0.615,25.712c0,5.459,0.232,13.645,0.697,24.56C453.471,867.57,453.704,875.732,453.704,881.14z"/>
		<path fill="#FFFFFF" d="M579.458,830.757c0,14.735-5.196,27.412-15.586,38.028c-10.828,11.015-24.281,16.521-40.359,16.521
			c-16.133,0-29.586-5.481-40.359-16.446c-10.391-10.568-15.586-23.269-15.586-38.104c0-14.687,5.25-27.361,15.75-38.029
			c10.828-11.063,24.227-16.597,40.195-16.597c16.023,0,29.449,5.533,40.277,16.597
			C574.235,803.345,579.458,816.021,579.458,830.757z M559.688,830.533c0-9.724-3.336-18.184-10.008-25.378
			c-7.001-7.64-15.778-11.461-26.332-11.461c-10.446,0-19.142,3.87-26.086,11.61c-6.563,7.244-9.844,15.729-9.844,25.452
			c0,9.674,3.281,18.134,9.844,25.377c6.944,7.74,15.64,11.61,26.086,11.61c10.609,0,19.413-3.87,26.414-11.61
			C556.379,848.891,559.688,840.356,559.688,830.533z"/>
		<path fill="#FFFFFF" d="M683.31,815.798c0,2.084-5.36,12.305-16.078,30.661c-6.781,11.461-13.563,22.922-20.344,34.383
			c-0.82,1.439-1.723,2.158-2.707,2.158h-16.488c-0.767,0-1.531-0.719-2.297-2.158c-0.164-0.298-6.673-11.411-19.523-33.341
			c-10.992-18.803-16.488-29.073-16.488-30.811c0-3.918,0.15-9.811,0.451-17.675c0.3-7.863,0.451-13.756,0.451-17.675
			c0-1.835,0.656-2.754,1.969-2.754c1.038,0,2.556,0.074,4.553,0.224c1.996,0.148,3.514,0.223,4.553,0.223
			c0.984,0,2.488-0.074,4.512-0.223c2.022-0.149,3.527-0.224,4.512-0.224c1.258,0,1.887,0.473,1.887,1.414
			c0,4.019-0.287,10.072-0.861,18.159s-0.861,14.165-0.861,18.232c0,3.375,8.477,18.408,25.43,45.1
			c4.483-6.946,9.352-14.909,14.602-23.889c7.601-12.998,11.402-20.64,11.402-22.922c0-3.87-0.137-9.649-0.41-17.34
			c-0.274-7.69-0.41-13.445-0.41-17.267c0-0.992,0.602-1.488,1.805-1.488c1.038,0,2.57,0.074,4.594,0.224
			c2.022,0.148,3.527,0.223,4.512,0.223s2.474-0.074,4.471-0.223c1.996-0.149,3.486-0.224,4.471-0.224
			c1.202,0,1.887,0.473,2.051,1.414c-0.055-0.347-0.082,0.596-0.082,2.828c0,3.673,0.054,9.166,0.164,16.484
			C683.255,806.633,683.31,812.126,683.31,815.798z"/>
		<path fill="#FFFFFF" d="M719.485,881.438c0,1.042-0.793,1.563-2.379,1.563c-0.984,0-2.489-0.074-4.512-0.224
			c-2.023-0.148-3.527-0.223-4.512-0.223c-1.039,0-2.571,0.074-4.594,0.223c-2.023,0.149-3.527,0.224-4.512,0.224
			c-1.367,0-2.051-0.569-2.051-1.712c0-5.656,0.287-14.177,0.861-25.563s0.861-19.933,0.861-25.638
			c0-5.508-0.287-13.779-0.861-24.819c-0.574-11.039-0.861-19.313-0.861-24.82c0-1.239,0.628-1.86,1.887-1.86
			c1.038,0,2.625,0.074,4.758,0.224c2.133,0.148,3.745,0.223,4.84,0.223c0.984,0,2.461-0.074,4.43-0.223
			c1.969-0.149,3.445-0.224,4.43-0.224c1.422,0,2.133,0.496,2.133,1.488c0,5.558-0.219,13.893-0.656,25.006
			c-0.438,11.114-0.656,19.449-0.656,25.006c0,5.705,0.232,14.264,0.697,25.675C719.252,867.174,719.485,875.732,719.485,881.438z"
			/>
		<path fill="#FFFFFF" d="M852.048,881.14c0,1.24-0.685,1.86-2.051,1.86c-0.984,0-2.475-0.074-4.471-0.224
			c-1.997-0.148-3.486-0.223-4.471-0.223s-2.489,0.074-4.512,0.223c-2.023,0.149-3.527,0.224-4.512,0.224
			c-1.367,0-2.051-0.818-2.051-2.456c0-6.3,0.218-15.751,0.656-28.354c0.438-12.602,0.656-22.054,0.656-28.354
			c0-0.941-0.219-1.414-0.656-1.414c-0.492,0-0.875,0.273-1.148,0.819c-2.789,5.407-9.38,19.846-19.77,43.313
			c-1.695,4.515-4.13,10.147-7.301,16.894c-0.383,0.645-2.352,0.968-5.906,0.968c-5.141,0-7.985-0.422-8.531-1.266
			c-1.859-4.019-4.512-9.648-7.957-16.894c-4.54-9.823-11.513-24.458-20.918-43.908c-0.164-0.347-0.521-0.694-1.066-1.042
			c-0.438,0.298-0.656,0.845-0.656,1.638c0,6.4,0.123,16,0.369,28.801s0.369,22.4,0.369,28.801c0,1.638-0.685,2.456-2.051,2.456
			c-0.931,0-2.352-0.074-4.266-0.224c-1.915-0.148-3.336-0.223-4.266-0.223c-0.984,0-2.448,0.074-4.389,0.223
			c-1.941,0.149-3.404,0.224-4.389,0.224c-1.367,0-2.051-0.472-2.051-1.414c0-5.507,0.287-13.756,0.861-24.745
			c0.574-10.988,0.861-19.237,0.861-24.745c0-5.704-0.287-14.276-0.861-25.712s-0.861-20.007-0.861-25.713
			c0-0.941,0.628-1.488,1.887-1.638c7.437-0.893,13.043-1.339,16.816-1.339c0.546,0,1.313,1.017,2.297,3.051
			c13.234,26.395,24.609,49.963,34.125,70.7c2.242,4.863,3.581,7.293,4.02,7.293c0.546,0,1.723-1.983,3.527-5.953
			c7.437-16.075,17.746-39.938,30.926-71.594c0.82-1.935,1.723-2.902,2.707-2.902c1.858,0,4.662,0.101,8.408,0.298
			c3.745,0.198,6.549,0.298,8.408,0.298c1.366,0,2.051,0.596,2.051,1.786c0,5.706-0.205,14.277-0.615,25.713
			s-0.615,20.008-0.615,25.712c0,5.459,0.232,13.645,0.697,24.56C851.814,867.57,852.048,875.732,852.048,881.14z"/>
		<path fill="#FFFFFF" d="M891.997,881.438c0,1.042-0.793,1.563-2.379,1.563c-0.984,0-2.489-0.074-4.512-0.224
			c-2.023-0.148-3.527-0.223-4.512-0.223c-1.039,0-2.571,0.074-4.594,0.223c-2.023,0.149-3.527,0.224-4.512,0.224
			c-1.367,0-2.051-0.569-2.051-1.712c0-5.656,0.287-14.177,0.861-25.563s0.861-19.933,0.861-25.638
			c0-5.508-0.287-13.779-0.861-24.819c-0.574-11.039-0.861-19.313-0.861-24.82c0-1.239,0.628-1.86,1.887-1.86
			c1.038,0,2.625,0.074,4.758,0.224c2.133,0.148,3.745,0.223,4.84,0.223c0.984,0,2.461-0.074,4.43-0.223
			c1.969-0.149,3.445-0.224,4.43-0.224c1.422,0,2.133,0.496,2.133,1.488c0,5.558-0.219,13.893-0.656,25.006
			c-0.438,11.114-0.656,19.449-0.656,25.006c0,5.705,0.232,14.264,0.697,25.675C891.764,867.174,891.997,875.732,891.997,881.438z"
			/>
		<path fill="#FFFFFF" d="M1003.231,780.225c0,5.756-0.26,14.375-0.779,25.861c-0.521,11.486-0.779,20.105-0.779,25.861
			c0,1.886,0.027,4.701,0.082,8.446c0.054,3.747,0.082,6.538,0.082,8.373c0,10.37-1.066,17.563-3.199,21.582
			c-3.281,6.152-9.652,10.319-19.113,12.503c-5.797,1.339-13.974,2.009-24.527,2.009c-19.142,0-31.692-2.877-37.652-8.633
			c-4.594-4.465-6.891-13.396-6.891-26.791c0-1.638,0.027-4.403,0.082-8.299c0.054-3.895,0.082-6.958,0.082-9.19
			c0-5.854-0.274-16.645-0.82-32.373c0-4.067-0.246-10.146-0.738-18.233c-0.055-0.596-0.082-0.992-0.082-1.19
			c0-1.042,0.71-1.563,2.133-1.563c2.242,0,5.277,0.026,9.105,0.074c4.43,0.05,7.437,0.075,9.023,0.075
			c1.258,0,1.887,0.446,1.887,1.339c0,7.543-0.178,18.879-0.533,34.011c-0.356,15.133-0.533,26.469-0.533,34.011
			c0,8.533,2.104,14.314,6.316,17.34c3.609,2.68,10.254,4.019,19.934,4.019c8.805,0,15.065-1.091,18.785-3.274
			c4.703-2.728,7.055-7.839,7.055-15.331c0-7.839-0.137-19.609-0.41-35.313c-0.274-15.703-0.41-27.473-0.41-35.313
			c0-0.793,0.792-1.29,2.379-1.488c1.148-0.149,2.789-0.149,4.922,0c2.515,0.198,3.719,0.297,3.609,0.297
			c0.984,0,2.474-0.074,4.471-0.223c1.996-0.149,3.486-0.224,4.471-0.224C1002.547,778.587,1003.231,779.134,1003.231,780.225z"/>
	</g>
</g>
</svg>
